# xmcd CD database file
#
# Track frame offsets:
#	150
#	45021
#	96382
#	126206
#	188228
#	229867
#
# Disc length: 3676 seconds
#
# Revision: 0
# Processed by: cddbd v1.5.2PL0 Copyright (c) Steve Scherf et al.
# Submitted via: CDex 1.51
#
DISCID=460e5a06
DTITLE=The Jiggs Whigham International Trio - Not so standards, Live at Nighttown
DYEAR=2015
DGENRE=Jazz
TTITLE0=The days of wine and roses by Henry Mancini
TTITLE1=Autumn leaves by Joseph Kosma
TTITLE2=Steve by Jiggs Wigham
TTITLE3=Some Day my prince will come by Frank Churchill
TTITLE4=Bags groove by Milt Jackson
TTITLE5=Saint Thomas by Sonny Rollins
EXTD=YEAR: 2015
EXTT0=
EXTT1=
EXTT2=
EXTT3=
EXTT4=
EXTT5=
PLAYORDER=
